<?xml version="1.0" standalone="no"?><!DOCTYPE svg PUBLIC "-//W3C//DTD SVG 1.1//EN" "http://www.w3.org/Graphics/SVG/1.1/DTD/svg11.dtd"><svg t="1584345451052" class="icon" viewBox="0 0 1024 1024" version="1.1" xmlns="http://www.w3.org/2000/svg" p-id="711" xmlns:xlink="http://www.w3.org/1999/xlink" width="32" height="32"><defs><style type="text/css"></style></defs><path d="M512.6 479.1m-287.3 0a287.3 287.3 0 1 0 574.6 0 287.3 287.3 0 1 0-574.6 0Z" fill="#804F21" p-id="712"></path><path d="M512.6 479.1m-237.8 0a237.8 237.8 0 1 0 475.6 0 237.8 237.8 0 1 0-475.6 0Z" fill="#F2EE74" p-id="713"></path><path d="M657.1 476.8c-14.3 1.6-26.9 10.2-33.7 22.9-17.1 32-63.4 30.6-78.5-2.5-6-13.1-18-22.5-32.2-25-35.7-6.3-48.7-50.9-21.9-75.4 10.6-9.7 15.8-24.1 13.8-38.3-5-35.9 33.4-62 64.9-44.1 12.5 7.1 27.8 7.6 40.7 1.3 32.6-15.9 69.3 12.6 62 48.1-2.9 14.1 1.4 28.7 11.4 39.1 25.2 26.2 9.5 69.8-26.5 73.9z" fill="#FFFFFF" p-id="714"></path><path d="M585.4 416.6m-41.3 0a41.3 41.3 0 1 0 82.6 0 41.3 41.3 0 1 0-82.6 0Z" fill="#F2EE74" p-id="715"></path><path d="M511.4 686.1l-207-148.7c-1-0.7-1.2-2.1-0.5-3l27.8-38.7c0.7-1 2.1-1.2 3-0.5l207 148.7c1 0.7 1.2 2.1 0.5 3l-27.8 38.7c-0.7 1-2.1 1.2-3 0.5zM478.7 598.6l-58.5 22.1M406.5 546.8l-48.8 29" fill="#E7434F" p-id="716"></path><path d="M593.4 646.6L386.4 498c-1-0.7-1.2-2.1-0.5-3l27.8-38.7c0.7-1 2.1-1.2 3-0.5l207 148.7c1 0.7 1.2 2.1 0.5 3l-27.8 38.7c-0.6 0.9-2 1.1-3 0.4zM560.7 559.1l-58.5 22.1M488.6 507.3l-48.8 29" fill="#E7434F" p-id="717"></path></svg>