<?xml version="1.0" standalone="no"?><!DOCTYPE svg PUBLIC "-//W3C//DTD SVG 1.1//EN" "http://www.w3.org/Graphics/SVG/1.1/DTD/svg11.dtd"><svg t="1574237101464" class="icon" viewBox="0 0 1024 1024" version="1.1" xmlns="http://www.w3.org/2000/svg" p-id="2197" xmlns:xlink="http://www.w3.org/1999/xlink" width="24" height="24"><defs><style type="text/css"></style></defs><path d="M311.466667 85.333333h358.4a12.8 12.8 0 0 1 12.8 12.8v230.4a12.8 12.8 0 0 0 12.8 12.8h187.733333a12.8 12.8 0 0 1 12.8 12.8v443.733334a12.8 12.8 0 0 1-12.8 12.8H311.466667a12.8 12.8 0 0 1-12.8-12.8V98.133333a12.8 12.8 0 0 1 12.8-12.8zM384 512v42.666667h256v-42.666667H384z m0 128v42.666667h426.666667v-42.666667H384z m364.032-548.266667L900.266667 277.76a12.8 12.8 0 0 1-9.898667 20.906667H738.133333a12.8 12.8 0 0 1-12.8-12.8V99.84a12.8 12.8 0 0 1 22.698667-8.106667zM183.466667 213.333333h59.733333a12.8 12.8 0 0 1 12.8 12.8V853.333333h499.2a12.8 12.8 0 0 1 12.8 12.8v59.733334a12.8 12.8 0 0 1-12.8 12.8H183.466667a12.8 12.8 0 0 1-12.8-12.8V226.133333a12.8 12.8 0 0 1 12.8-12.8z" p-id="2198"></path></svg>